<?xml version="1.0" encoding="UTF-8" standalone="no"?>
<!-- Created with Inkscape (http://www.inkscape.org/) -->

<svg
   xmlns:dc="http://purl.org/dc/elements/1.1/"
   xmlns:cc="http://creativecommons.org/ns#"
   xmlns:rdf="http://www.w3.org/1999/02/22-rdf-syntax-ns#"
   xmlns:svg="http://www.w3.org/2000/svg"
   xmlns="http://www.w3.org/2000/svg"
   xmlns:sodipodi="http://sodipodi.sourceforge.net/DTD/sodipodi-0.dtd"
   xmlns:inkscape="http://www.inkscape.org/namespaces/inkscape"
   width="243.6479mm"
   height="60.726711mm"
   viewBox="0 0 243.6479 60.726711"
   version="1.1"
   id="svg8"
   inkscape:version="0.92.4 (5da689c313, 2019-01-14)"
   sodipodi:docname="logo_horizontal.svg">
  <defs
     id="defs2">
    <clipPath
       id="clipPath3745"
       clipPathUnits="userSpaceOnUse">
      <path
         inkscape:connector-curvature="0"
         id="path3743"
         d="M 0,595.276 H 841.89 V 0 H 0 Z" />
    </clipPath>
  </defs>
  <sodipodi:namedview
     id="base"
     pagecolor="#ffffff"
     bordercolor="#666666"
     borderopacity="1.0"
     inkscape:pageopacity="0.0"
     inkscape:pageshadow="2"
     inkscape:zoom="0.98994949"
     inkscape:cx="471.80057"
     inkscape:cy="-34.183127"
     inkscape:document-units="mm"
     inkscape:current-layer="layer1"
     showgrid="false"
     inkscape:window-width="1920"
     inkscape:window-height="1027"
     inkscape:window-x="-8"
     inkscape:window-y="-8"
     inkscape:window-maximized="1"
     fit-margin-top="0"
     fit-margin-left="0"
     fit-margin-right="0"
     fit-margin-bottom="0" />
  <metadata
     id="metadata5">
    <rdf:RDF>
      <cc:Work
         rdf:about="">
        <dc:format>image/svg+xml</dc:format>
        <dc:type
           rdf:resource="http://purl.org/dc/dcmitype/StillImage" />
        <dc:title></dc:title>
      </cc:Work>
    </rdf:RDF>
  </metadata>
  <g
     inkscape:label="Layer 1"
     inkscape:groupmode="layer"
     id="layer1"
     transform="translate(-94.997313,-124.85577)">
    <path
       inkscape:connector-curvature="0"
       id="path3725"
       style="fill:#5c4d9b;fill-opacity:1;fill-rule:nonzero;stroke:none;stroke-width:0.35277778"
       d="m 336.28937,165.69847 v -7.06755 h 2.35585 v 9.4234 h -11.77925 v -2.35585 z" />
    <path
       d="m 331.57745,144.49575 h -2.35585 v 7.06755 h 2.35585 z m -4.71134,9.4234 V 142.1399 H 338.645 v 2.35585 h -4.71134 v 7.06755 h 4.71134 v 2.35585 z"
       style="fill:#5c4d9b;fill-opacity:1;fill-rule:nonzero;stroke:none;stroke-width:0.35277778"
       id="path3727"
       inkscape:connector-curvature="0" />
    <path
       d="m 333.93366,135.07235 h 2.35585 v -7.06755 h -2.35585 z m -4.71206,0 h 2.35585 v -7.06755 h -2.35585 z m -2.35549,2.35585 v -11.77925 h 4.71134 v 2.35585 h 2.35621 v -2.35585 h 4.71134 v 11.77925 z"
       style="fill:#5c4d9b;fill-opacity:1;fill-rule:nonzero;stroke:none;stroke-width:0.35277778"
       id="path3729"
       inkscape:connector-curvature="0" />
    <path
       inkscape:connector-curvature="0"
       id="path3733"
       style="fill:#5c4d9b;fill-opacity:1;fill-rule:nonzero;stroke:none;stroke-width:0.35277778"
       d="m 163.78295,183.48345 v -7.33989 h 4.12961 v 0.62935 h -3.46992 v 2.72803 h 2.80987 v 0.62936 h -2.80987 v 2.72379 h 3.46992 v 0.62936 z" />
    <path
       inkscape:connector-curvature="0"
       id="path3737"
       style="fill:#5c4d9b;fill-opacity:1;fill-rule:nonzero;stroke:none;stroke-width:0.35277778"
       d="m 171.67462,183.48345 -1.12007,-2.01154 -1.12148,2.01154 h -0.68016 l 1.46791,-2.62079 -1.46791,-2.62008 h 0.68016 l 1.12148,2.01154 1.12007,-2.01154 h 0.68192 l -1.46403,2.62008 1.46403,2.62079 z" />
    <g
       id="g3747"
       transform="matrix(0.35277777,0,0,-0.35277777,175.22744,179.64417)">
      <path
         d="M 0,0 C 0,0.355 -0.066,0.694 -0.203,1.008 -0.339,1.321 -0.521,1.594 -0.751,1.825 -0.987,2.061 -1.259,2.242 -1.573,2.379 -1.887,2.515 -2.222,2.581 -2.581,2.581 H -3.77 C -4.129,2.581 -4.463,2.515 -4.781,2.379 -5.095,2.242 -5.368,2.061 -5.599,1.825 -5.83,1.594 -6.016,1.321 -6.152,1.008 -6.284,0.694 -6.354,0.355 -6.354,0 v -6.907 c 0,-0.36 0.07,-0.694 0.202,-1.008 0.136,-0.317 0.322,-0.59 0.553,-0.821 0.231,-0.232 0.504,-0.417 0.818,-0.549 0.318,-0.137 0.652,-0.207 1.011,-0.207 h 1.189 c 0.359,0 0.694,0.07 1.008,0.207 0.314,0.132 0.586,0.317 0.822,0.549 0.23,0.231 0.412,0.504 0.548,0.821 C -0.066,-7.601 0,-7.267 0,-6.907 Z M 1.445,-8.505 C 1.218,-9.038 0.904,-9.5 0.508,-9.896 c -0.397,-0.397 -0.859,-0.71 -1.392,-0.938 -0.533,-0.227 -1.098,-0.339 -1.697,-0.339 h -0.45 c -0.669,0 -1.288,0.137 -1.858,0.405 -0.569,0.273 -1.057,0.649 -1.465,1.131 v -7.196 H -8.138 V 3.973 h 0.595 l 0.97,-1.508 c 0.408,0.55 0.916,0.987 1.531,1.313 0.616,0.323 1.285,0.488 2.011,0.488 h 0.45 c 0.599,0 1.164,-0.117 1.697,-0.343 C -0.351,3.695 0.111,3.382 0.508,2.985 0.904,2.589 1.218,2.127 1.445,1.594 1.672,1.062 1.788,0.496 1.788,-0.103 v -6.706 c 0,-0.598 -0.116,-1.164 -0.343,-1.696"
         style="fill:#5c4d9b;fill-opacity:1;fill-rule:nonzero;stroke:none"
         id="path3749"
         inkscape:connector-curvature="0" />
    </g>
    <g
       id="g3751"
       transform="matrix(0.35277777,0,0,-0.35277777,179.98751,179.64417)">
      <path
         d="M 0,0 C 0,0.355 -0.066,0.694 -0.202,1.008 -0.339,1.321 -0.521,1.594 -0.751,1.825 -0.987,2.061 -1.259,2.242 -1.573,2.379 -1.887,2.515 -2.221,2.581 -2.581,2.581 H -3.77 C -4.129,2.581 -4.463,2.515 -4.781,2.379 -5.095,2.242 -5.368,2.061 -5.599,1.825 -5.83,1.594 -6.016,1.321 -6.152,1.008 -6.284,0.694 -6.354,0.355 -6.354,0 V -2.209 H 0 Z M 1.445,-8.505 C 1.218,-9.038 0.904,-9.5 0.508,-9.896 c -0.397,-0.397 -0.859,-0.71 -1.392,-0.938 -0.533,-0.227 -1.098,-0.339 -1.697,-0.339 H -3.77 c -0.603,0 -1.168,0.112 -1.697,0.339 -0.533,0.228 -0.999,0.541 -1.395,0.938 -0.397,0.396 -0.706,0.858 -0.933,1.391 -0.232,0.532 -0.343,1.098 -0.343,1.696 v 6.706 c 0,0.599 0.111,1.165 0.343,1.697 0.227,0.533 0.536,0.995 0.933,1.391 0.396,0.397 0.862,0.71 1.395,0.938 0.529,0.226 1.094,0.343 1.697,0.343 h 1.189 c 0.599,0 1.164,-0.117 1.697,-0.343 C -0.351,3.695 0.111,3.382 0.508,2.985 0.904,2.589 1.218,2.127 1.445,1.594 1.672,1.062 1.788,0.496 1.788,-0.103 V -3.6 h -8.142 v -3.307 c 0,-0.36 0.07,-0.694 0.202,-1.008 0.136,-0.317 0.322,-0.59 0.553,-0.821 0.231,-0.232 0.504,-0.417 0.818,-0.549 0.318,-0.137 0.652,-0.207 1.011,-0.207 h 1.189 c 0.36,0 0.694,0.07 1.008,0.207 0.314,0.132 0.586,0.317 0.822,0.549 0.23,0.231 0.412,0.504 0.549,0.821 C -0.066,-7.601 0,-7.267 0,-6.907 v 0.986 L 1.788,-6.21 v -0.599 c 0,-0.598 -0.116,-1.164 -0.343,-1.696"
         style="fill:#5c4d9b;fill-opacity:1;fill-rule:nonzero;stroke:none"
         id="path3753"
         inkscape:connector-curvature="0" />
    </g>
    <g
       id="g3755"
       transform="matrix(0.35277777,0,0,-0.35277777,183.41782,178.84145)">
      <path
         d="m 0,0 c -0.359,0 -0.694,-0.066 -1.008,-0.202 -0.313,-0.137 -0.59,-0.319 -0.821,-0.55 -0.232,-0.235 -0.417,-0.508 -0.553,-0.821 -0.133,-0.314 -0.203,-0.653 -0.203,-1.008 V -13.159 H -4.369 V 1.697 h 0.595 l 0.97,-1.508 c 0.409,0.55 0.921,0.988 1.532,1.314 0.615,0.322 1.284,0.487 2.011,0.487 H 1.784 V 0 Z"
         style="fill:#5c4d9b;fill-opacity:1;fill-rule:nonzero;stroke:none"
         id="path3757"
         inkscape:connector-curvature="0" />
    </g>
    <g
       id="g3759"
       transform="matrix(0.35277777,0,0,-0.35277777,186.79556,183.48373)">
      <path
         d="m 0,0 c -0.541,0 -1.053,0.104 -1.532,0.306 -0.479,0.202 -0.892,0.483 -1.247,0.842 -0.355,0.355 -0.632,0.772 -0.842,1.248 -0.207,0.474 -0.31,0.982 -0.31,1.523 v 9.24 h -2.671 v 1.697 h 2.671 v 3.572 l 1.784,0.289 V 14.856 H 1.627 V 13.159 H -2.147 V 3.832 c 0,-0.302 0.054,-0.578 0.165,-0.834 C -1.87,2.742 -1.718,2.515 -1.523,2.32 -1.33,2.127 -1.103,1.974 -0.842,1.866 -0.582,1.755 -0.301,1.697 0,1.697 H 1.627 V 0 Z"
         style="fill:#5c4d9b;fill-opacity:1;fill-rule:nonzero;stroke:none"
         id="path3761"
         inkscape:connector-curvature="0" />
    </g>
    <g
       id="g3763"
       transform="matrix(0.35277777,0,0,-0.35277777,195.16955,181.7839)">
      <path
         d="M 0,0 C 0,-0.706 -0.141,-1.37 -0.425,-1.989 -0.71,-2.609 -1.094,-3.15 -1.573,-3.612 -2.052,-4.079 -2.61,-4.442 -3.241,-4.711 -3.877,-4.975 -4.546,-5.107 -5.252,-5.107 h -1.495 c -0.706,0 -1.375,0.132 -2.006,0.396 -0.636,0.269 -1.194,0.632 -1.668,1.099 -0.479,0.462 -0.864,1.003 -1.148,1.623 -0.285,0.619 -0.43,1.283 -0.43,1.989 v 0.826 l 1.874,0.306 V 0 c 0,-0.466 0.091,-0.899 0.281,-1.3 0.19,-0.401 0.442,-0.756 0.764,-1.057 0.318,-0.306 0.686,-0.545 1.107,-0.718 0.421,-0.174 0.863,-0.265 1.329,-0.265 h 1.305 c 0.466,0 0.904,0.091 1.321,0.265 0.417,0.173 0.785,0.412 1.103,0.718 0.318,0.301 0.574,0.656 0.764,1.057 0.185,0.401 0.28,0.834 0.28,1.3 v 0.624 c 0,0.714 -0.14,1.309 -0.421,1.783 -0.281,0.476 -0.652,0.88 -1.115,1.21 -0.466,0.335 -0.99,0.619 -1.577,0.851 -0.582,0.231 -1.185,0.463 -1.804,0.698 -0.62,0.23 -1.222,0.487 -1.809,0.768 -0.582,0.281 -1.11,0.631 -1.573,1.052 -0.462,0.421 -0.838,0.934 -1.119,1.544 -0.28,0.612 -0.417,1.359 -0.417,2.251 v 0.388 c 0,0.706 0.132,1.371 0.397,1.99 0.268,0.619 0.631,1.16 1.094,1.623 0.466,0.466 1.011,0.829 1.635,1.098 0.623,0.265 1.288,0.396 1.994,0.396 h 1.334 c 0.706,0 1.371,-0.131 1.99,-0.396 0.619,-0.269 1.16,-0.632 1.622,-1.098 0.467,-0.463 0.83,-1.004 1.099,-1.623 0.264,-0.619 0.396,-1.284 0.396,-1.99 v -0.537 l -1.87,-0.301 v 0.838 c 0,0.467 -0.087,0.9 -0.26,1.301 -0.178,0.4 -0.413,0.751 -0.715,1.052 -0.297,0.298 -0.648,0.538 -1.048,0.71 -0.405,0.174 -0.835,0.261 -1.301,0.261 h -1.16 c -0.462,0 -0.896,-0.087 -1.296,-0.261 C -8.2,14.06 -8.551,13.82 -8.857,13.522 -9.162,13.221 -9.402,12.87 -9.575,12.47 c -0.174,-0.401 -0.26,-0.834 -0.26,-1.301 v -0.388 c 0,-0.669 0.14,-1.23 0.421,-1.684 0.281,-0.454 0.652,-0.843 1.115,-1.169 0.466,-0.323 0.99,-0.603 1.577,-0.842 0.582,-0.235 1.185,-0.48 1.804,-0.723 0.62,-0.248 1.222,-0.52 1.809,-0.813 C -2.527,5.252 -2.003,4.889 -1.536,4.46 -1.074,4.03 -0.702,3.506 -0.421,2.887 -0.141,2.268 0,1.512 0,0.624 Z"
         style="fill:#5c4d9b;fill-opacity:1;fill-rule:nonzero;stroke:none"
         id="path3765"
         inkscape:connector-curvature="0" />
    </g>
    <g
       id="g3767"
       transform="matrix(0.35277777,0,0,-0.35277777,197.22765,185.58247)">
      <path
         d="m 0,0 h -1.73 l 2.643,7.226 -4.819,13.58 h 1.788 L 1.755,9.546 1.812,8.778 1.87,9.546 5.731,20.806 h 1.784 z"
         style="fill:#5c4d9b;fill-opacity:1;fill-rule:nonzero;stroke:none"
         id="path3769"
         inkscape:connector-curvature="0" />
    </g>
    <g
       id="g3771"
       transform="matrix(0.35277777,0,0,-0.35277777,204.11148,182.1522)">
      <path
         d="m 0,0 c 0,-0.604 -0.12,-1.152 -0.363,-1.647 -0.24,-0.5 -0.57,-0.93 -0.987,-1.285 -0.413,-0.359 -0.896,-0.635 -1.441,-0.834 -0.549,-0.198 -1.124,-0.297 -1.722,-0.297 h -1.189 c -0.599,0 -1.173,0.112 -1.718,0.338 -0.549,0.228 -1.028,0.541 -1.436,0.938 -0.414,0.396 -0.74,0.858 -0.987,1.391 -0.248,0.533 -0.372,1.098 -0.372,1.697 v 0.598 l 1.784,0.289 V 0.202 c 0,-0.359 0.078,-0.693 0.227,-1.008 0.148,-0.317 0.35,-0.59 0.602,-0.821 0.252,-0.231 0.541,-0.417 0.872,-0.549 0.326,-0.137 0.668,-0.207 1.028,-0.207 h 1.189 c 0.359,0 0.702,0.054 1.032,0.161 0.326,0.108 0.62,0.26 0.876,0.458 0.255,0.199 0.462,0.439 0.611,0.719 0.148,0.281 0.223,0.599 0.223,0.958 0,0.528 -0.116,0.966 -0.347,1.305 -0.232,0.339 -0.541,0.619 -0.921,0.846 -0.384,0.227 -0.817,0.417 -1.305,0.566 -0.491,0.152 -0.99,0.302 -1.503,0.45 -0.511,0.152 -1.011,0.322 -1.503,0.516 -0.487,0.194 -0.921,0.446 -1.304,0.763 -0.384,0.315 -0.69,0.706 -0.921,1.182 -0.231,0.475 -0.347,1.065 -0.347,1.771 0,0.599 0.116,1.148 0.347,1.647 0.231,0.496 0.545,0.926 0.941,1.284 0.397,0.356 0.859,0.636 1.388,0.834 0.528,0.198 1.09,0.298 1.688,0.298 h 1.045 c 0.598,0 1.168,-0.116 1.697,-0.343 0.533,-0.227 0.999,-0.541 1.396,-0.937 0.396,-0.397 0.706,-0.859 0.933,-1.392 0.227,-0.532 0.342,-1.098 0.342,-1.696 V 6.948 L -1.928,6.659 v 0.45 c 0,0.356 -0.071,0.695 -0.203,1.008 C -2.267,8.431 -2.453,8.703 -2.684,8.935 -2.915,9.17 -3.188,9.352 -3.505,9.488 -3.819,9.624 -4.154,9.69 -4.513,9.69 H -5.558 C -5.913,9.69 -6.251,9.637 -6.565,9.529 -6.879,9.426 -7.151,9.273 -7.387,9.075 -7.618,8.877 -7.8,8.638 -7.936,8.356 -8.072,8.076 -8.138,7.754 -8.138,7.398 -8.138,6.887 -8.022,6.466 -7.792,6.144 -7.56,5.817 -7.25,5.545 -6.871,5.322 -6.487,5.099 -6.053,4.913 -5.566,4.765 -5.075,4.616 -4.579,4.459 -4.071,4.302 -3.563,4.141 -3.064,3.959 -2.577,3.757 -2.085,3.555 -1.652,3.29 -1.268,2.973 -0.888,2.654 -0.578,2.254 -0.347,1.775 -0.116,1.296 0,0.706 0,0"
         style="fill:#5c4d9b;fill-opacity:1;fill-rule:nonzero;stroke:none"
         id="path3773"
         inkscape:connector-curvature="0" />
    </g>
    <g
       id="g3775"
       transform="matrix(0.35277777,0,0,-0.35277777,207.22859,183.48373)">
      <path
         d="m 0,0 c -0.541,0 -1.053,0.104 -1.532,0.306 -0.479,0.202 -0.892,0.483 -1.247,0.842 -0.355,0.355 -0.632,0.772 -0.842,1.248 -0.207,0.474 -0.31,0.982 -0.31,1.523 v 9.24 h -2.672 v 1.697 h 2.672 v 3.572 l 1.784,0.289 V 14.856 H 1.626 V 13.159 H -2.147 V 3.832 c 0,-0.302 0.053,-0.578 0.165,-0.834 C -1.871,2.742 -1.718,2.515 -1.524,2.32 -1.33,2.127 -1.103,1.974 -0.842,1.866 -0.583,1.755 -0.302,1.697 0,1.697 H 1.626 V 0 Z"
         style="fill:#5c4d9b;fill-opacity:1;fill-rule:nonzero;stroke:none"
         id="path3777"
         inkscape:connector-curvature="0" />
    </g>
    <g
       id="g3779"
       transform="matrix(0.35277777,0,0,-0.35277777,211.83124,179.64417)">
      <path
         d="m 0,0 c 0,0.355 -0.07,0.694 -0.206,1.008 -0.132,0.313 -0.318,0.586 -0.549,0.817 -0.232,0.236 -0.508,0.417 -0.822,0.554 -0.314,0.136 -0.648,0.202 -1.007,0.202 h -1.189 c -0.36,0 -0.694,-0.066 -1.008,-0.202 C -5.095,2.242 -5.372,2.061 -5.603,1.825 -5.834,1.594 -6.02,1.321 -6.152,1.008 -6.288,0.694 -6.358,0.355 -6.358,0 V -2.209 H 0 Z M 1.441,-8.505 C 1.214,-9.038 0.904,-9.5 0.508,-9.896 c -0.396,-0.397 -0.863,-0.71 -1.396,-0.938 -0.532,-0.227 -1.098,-0.339 -1.696,-0.339 h -1.189 c -0.599,0 -1.165,0.112 -1.698,0.339 -0.532,0.228 -0.999,0.541 -1.395,0.938 -0.397,0.396 -0.706,0.858 -0.933,1.391 -0.227,0.532 -0.343,1.098 -0.343,1.696 v 6.706 c 0,0.599 0.116,1.165 0.343,1.697 0.227,0.533 0.536,0.995 0.933,1.391 0.396,0.397 0.863,0.71 1.395,0.938 0.533,0.226 1.099,0.343 1.698,0.343 h 1.189 c 0.598,0 1.164,-0.117 1.696,-0.343 0.533,-0.228 1,-0.541 1.396,-0.938 C 0.904,2.589 1.214,2.127 1.441,1.594 1.668,1.062 1.784,0.496 1.784,-0.103 V -3.6 h -8.142 v -3.307 c 0,-0.36 0.07,-0.694 0.206,-1.008 0.132,-0.317 0.318,-0.59 0.549,-0.821 0.231,-0.232 0.508,-0.417 0.822,-0.549 0.314,-0.137 0.648,-0.207 1.008,-0.207 h 1.189 c 0.359,0 0.693,0.07 1.007,0.207 0.314,0.132 0.59,0.317 0.822,0.549 0.231,0.231 0.417,0.504 0.549,0.821 C -0.07,-7.601 0,-7.267 0,-6.907 v 0.986 L 1.784,-6.21 v -0.599 c 0,-0.598 -0.116,-1.164 -0.343,-1.696"
         style="fill:#5c4d9b;fill-opacity:1;fill-rule:nonzero;stroke:none"
         id="path3781"
         inkscape:connector-curvature="0" />
    </g>
    <g
       id="g3783"
       transform="matrix(0.35277777,0,0,-0.35277777,219.25266,183.48373)">
      <path
         d="m 0,0 v 10.884 c 0,0.355 -0.066,0.694 -0.203,1.008 -0.136,0.313 -0.321,0.586 -0.553,0.817 -0.231,0.235 -0.503,0.417 -0.817,0.554 -0.318,0.135 -0.653,0.202 -1.012,0.202 h -0.883 c -0.36,0 -0.694,-0.067 -1.008,-0.202 C -4.79,13.126 -5.066,12.944 -5.302,12.709 -5.541,12.478 -5.727,12.205 -5.863,11.892 -6,11.578 -6.065,11.239 -6.065,10.884 V 0 h -1.772 v 10.884 c 0,0.355 -0.066,0.694 -0.202,1.008 -0.136,0.313 -0.322,0.586 -0.558,0.817 -0.239,0.235 -0.511,0.417 -0.825,0.554 -0.318,0.135 -0.653,0.202 -1.012,0.202 h -0.883 c -0.36,0 -0.694,-0.067 -1.008,-0.202 -0.314,-0.137 -0.591,-0.319 -0.821,-0.554 -0.232,-0.231 -0.417,-0.504 -0.55,-0.817 -0.136,-0.314 -0.206,-0.653 -0.206,-1.008 V 0 h -1.784 v 14.856 h 0.595 l 0.974,-1.507 c 0.405,0.549 0.917,0.987 1.528,1.313 0.615,0.322 1.284,0.487 2.01,0.487 h 0.145 c 0.842,0 1.602,-0.211 2.279,-0.624 0.677,-0.417 1.197,-0.969 1.569,-1.655 0.182,0.339 0.409,0.649 0.682,0.929 0.268,0.281 0.57,0.52 0.9,0.719 0.326,0.198 0.685,0.35 1.073,0.462 0.384,0.112 0.789,0.169 1.202,0.169 h 0.144 c 0.603,0 1.168,-0.116 1.701,-0.342 0.529,-0.228 0.995,-0.541 1.392,-0.938 0.396,-0.396 0.71,-0.858 0.937,-1.391 0.227,-0.533 0.339,-1.098 0.339,-1.697 L 1.784,0 Z"
         style="fill:#5c4d9b;fill-opacity:1;fill-rule:nonzero;stroke:none"
         id="path3785"
         inkscape:connector-curvature="0" />
    </g>
    <g
       id="g3787"
       transform="matrix(0.35277777,0,0,-0.35277777,224.74397,182.1522)">
      <path
         d="m 0,0 c 0,-0.604 -0.12,-1.152 -0.363,-1.647 -0.24,-0.5 -0.57,-0.93 -0.987,-1.285 -0.413,-0.359 -0.896,-0.635 -1.442,-0.834 -0.548,-0.198 -1.123,-0.297 -1.721,-0.297 h -1.189 c -0.599,0 -1.173,0.112 -1.718,0.338 -0.549,0.228 -1.028,0.541 -1.436,0.938 -0.414,0.396 -0.74,0.858 -0.987,1.391 -0.248,0.533 -0.372,1.098 -0.372,1.697 v 0.598 l 1.784,0.289 V 0.202 c 0,-0.359 0.078,-0.693 0.227,-1.008 0.148,-0.317 0.35,-0.59 0.602,-0.821 0.252,-0.231 0.541,-0.417 0.872,-0.549 0.326,-0.137 0.668,-0.207 1.028,-0.207 h 1.189 c 0.359,0 0.702,0.054 1.032,0.161 0.326,0.108 0.62,0.26 0.876,0.458 0.255,0.199 0.462,0.439 0.61,0.719 0.149,0.281 0.224,0.599 0.224,0.958 0,0.528 -0.116,0.966 -0.347,1.305 -0.232,0.339 -0.541,0.619 -0.921,0.846 -0.384,0.227 -0.817,0.417 -1.305,0.566 -0.491,0.152 -0.99,0.302 -1.503,0.45 -0.512,0.152 -1.011,0.322 -1.503,0.516 -0.487,0.194 -0.921,0.446 -1.304,0.763 -0.384,0.315 -0.69,0.706 -0.921,1.182 -0.231,0.475 -0.347,1.065 -0.347,1.771 0,0.599 0.116,1.148 0.347,1.647 0.231,0.496 0.545,0.926 0.941,1.284 0.397,0.356 0.859,0.636 1.387,0.834 0.529,0.198 1.091,0.298 1.689,0.298 h 1.045 c 0.598,0 1.168,-0.116 1.697,-0.343 0.533,-0.227 0.999,-0.541 1.396,-0.937 0.396,-0.397 0.706,-0.859 0.933,-1.392 0.227,-0.532 0.342,-1.098 0.342,-1.696 V 6.948 L -1.928,6.659 v 0.45 c 0,0.356 -0.071,0.695 -0.203,1.008 C -2.267,8.431 -2.453,8.703 -2.684,8.935 -2.915,9.17 -3.188,9.352 -3.505,9.488 -3.819,9.624 -4.154,9.69 -4.513,9.69 H -5.558 C -5.913,9.69 -6.251,9.637 -6.565,9.529 -6.879,9.426 -7.151,9.273 -7.387,9.075 -7.618,8.877 -7.8,8.638 -7.936,8.356 -8.072,8.076 -8.138,7.754 -8.138,7.398 -8.138,6.887 -8.022,6.466 -7.792,6.144 -7.56,5.817 -7.25,5.545 -6.871,5.322 -6.487,5.099 -6.053,4.913 -5.566,4.765 -5.075,4.616 -4.579,4.459 -4.071,4.302 -3.563,4.141 -3.064,3.959 -2.577,3.757 -2.085,3.555 -1.652,3.29 -1.268,2.973 -0.888,2.654 -0.578,2.254 -0.347,1.775 -0.116,1.296 0,0.706 0,0"
         style="fill:#5c4d9b;fill-opacity:1;fill-rule:nonzero;stroke:none"
         id="path3789"
         inkscape:connector-curvature="0" />
    </g>
    <g
       id="g3791"
       transform="matrix(0.35277777,0,0,-0.35277777,231.23589,180.94468)">
      <path
         d="M 0,0 H -3.774 C -4.133,0 -4.467,-0.066 -4.781,-0.202 -5.095,-0.339 -5.372,-0.524 -5.603,-0.764 -5.834,-0.999 -6.02,-1.276 -6.152,-1.59 -6.288,-1.903 -6.358,-2.238 -6.358,-2.598 v -0.623 c 0,-0.359 0.07,-0.693 0.206,-1.008 0.132,-0.317 0.318,-0.589 0.549,-0.821 0.231,-0.231 0.508,-0.417 0.822,-0.549 0.314,-0.136 0.648,-0.207 1.007,-0.207 h 1.19 c 0.358,0 0.693,0.071 1.007,0.207 0.313,0.132 0.59,0.318 0.822,0.549 0.231,0.232 0.417,0.504 0.548,0.821 C -0.07,-3.914 0,-3.58 0,-3.221 Z m 1.189,-7.197 -0.987,1.478 c -0.409,-0.528 -0.916,-0.958 -1.523,-1.284 -0.611,-0.322 -1.276,-0.483 -2.003,-0.483 h -0.45 c -0.599,0 -1.164,0.112 -1.697,0.339 -0.532,0.227 -0.999,0.541 -1.395,0.937 -0.397,0.397 -0.706,0.858 -0.933,1.392 -0.227,0.532 -0.343,1.097 -0.343,1.696 v 0.149 c 0,0.599 0.116,1.164 0.343,1.697 0.227,0.533 0.536,0.995 0.933,1.391 0.396,0.397 0.863,0.71 1.395,0.938 0.533,0.226 1.098,0.339 1.697,0.339 L 0,1.392 V 3.687 C 0,4.042 -0.07,4.381 -0.207,4.694 -0.338,5.008 -0.524,5.28 -0.755,5.512 -0.987,5.747 -1.264,5.929 -1.577,6.065 -1.891,6.201 -2.226,6.268 -2.584,6.268 h -1.045 c -0.36,0 -0.694,-0.067 -1.008,-0.203 C -4.951,5.929 -5.223,5.747 -5.458,5.512 -5.689,5.28 -5.871,5.008 -6.007,4.694 -6.144,4.381 -6.21,4.042 -6.21,3.687 V 3.15 l -1.788,0.289 v 0.145 c 0,0.599 0.116,1.164 0.343,1.696 0.227,0.533 0.541,0.995 0.937,1.392 0.397,0.396 0.859,0.71 1.392,0.937 0.533,0.227 1.098,0.343 1.697,0.343 h 1.045 c 0.598,0 1.164,-0.116 1.696,-0.343 C -0.355,7.382 0.111,7.068 0.508,6.672 0.904,6.275 1.214,5.813 1.441,5.28 1.668,4.748 1.784,4.183 1.784,3.584 V -7.197 Z"
         style="fill:#5c4d9b;fill-opacity:1;fill-rule:nonzero;stroke:none"
         id="path3793"
         inkscape:connector-curvature="0" />
    </g>
    <g
       id="g3795"
       transform="matrix(0.35277777,0,0,-0.35277777,235.99599,183.48373)">
      <path
         d="m 0,0 v 10.884 c 0,0.355 -0.07,0.694 -0.207,1.008 -0.131,0.313 -0.317,0.586 -0.548,0.817 -0.232,0.235 -0.508,0.417 -0.822,0.554 -0.314,0.135 -0.649,0.202 -1.007,0.202 h -1.19 c -0.359,0 -0.693,-0.067 -1.007,-0.202 -0.314,-0.137 -0.591,-0.319 -0.822,-0.554 -0.231,-0.231 -0.417,-0.504 -0.549,-0.817 -0.136,-0.314 -0.206,-0.653 -0.206,-1.008 V 0 h -1.784 v 14.856 h 0.595 l 0.974,-1.507 c 0.405,0.549 0.916,0.987 1.528,1.313 0.615,0.322 1.284,0.487 2.01,0.487 h 0.451 c 0.598,0 1.164,-0.116 1.696,-0.342 0.533,-0.228 0.999,-0.541 1.396,-0.938 0.396,-0.396 0.706,-0.858 0.933,-1.391 0.227,-0.533 0.343,-1.098 0.343,-1.697 L 1.784,0 Z"
         style="fill:#5c4d9b;fill-opacity:1;fill-rule:nonzero;stroke:none"
         id="path3797"
         inkscape:connector-curvature="0" />
    </g>
    <g
       id="g3799"
       transform="matrix(0.35277777,0,0,-0.35277777,240.75609,179.64417)">
      <path
         d="m 0,0 c 0,0.355 -0.07,0.694 -0.207,1.008 -0.131,0.313 -0.317,0.586 -0.548,0.817 -0.232,0.236 -0.508,0.417 -0.822,0.554 -0.314,0.136 -0.649,0.202 -1.007,0.202 h -1.19 C -4.133,2.581 -4.467,2.515 -4.781,2.379 -5.095,2.242 -5.372,2.061 -5.603,1.825 -5.834,1.594 -6.02,1.321 -6.152,1.008 -6.288,0.694 -6.358,0.355 -6.358,0 v -6.907 c 0,-0.36 0.07,-0.694 0.206,-1.008 0.132,-0.317 0.318,-0.59 0.549,-0.821 0.231,-0.232 0.508,-0.417 0.822,-0.549 0.314,-0.137 0.648,-0.207 1.007,-0.207 h 1.19 c 0.358,0 0.693,0.07 1.007,0.207 0.314,0.132 0.59,0.317 0.822,0.549 0.231,0.231 0.417,0.504 0.548,0.821 C -0.07,-7.601 0,-7.267 0,-6.907 Z m 1.189,-10.884 -0.986,1.508 c -0.41,-0.55 -0.917,-0.987 -1.524,-1.313 -0.611,-0.323 -1.276,-0.484 -2.003,-0.484 h -0.45 c -0.599,0 -1.164,0.112 -1.697,0.339 -0.532,0.228 -0.999,0.541 -1.395,0.938 -0.397,0.396 -0.706,0.858 -0.933,1.391 -0.227,0.532 -0.343,1.098 -0.343,1.696 v 6.706 c 0,0.599 0.116,1.165 0.343,1.697 0.227,0.533 0.536,0.995 0.933,1.391 0.396,0.397 0.863,0.71 1.395,0.938 0.533,0.226 1.098,0.343 1.697,0.343 h 0.45 c 0.669,0 1.284,-0.137 1.858,-0.41 C -0.896,3.588 -0.409,3.208 0,2.726 v 7.196 h 1.784 v -20.806 z"
         style="fill:#5c4d9b;fill-opacity:1;fill-rule:nonzero;stroke:none"
         id="path3801"
         inkscape:connector-curvature="0" />
    </g>
    <g
       id="g3803"
       transform="matrix(0.35277777,0,0,-0.35277777,245.8731,181.14418)">
      <path
         d="M 0,0 H 5.586 L 2.845,9.591 2.787,10.359 2.729,9.591 Z m 6.082,-1.784 h -6.59 L -1.87,-6.632 H -3.815 L 2.279,14.174 H 3.266 L 9.389,-6.632 H 7.461 Z"
         style="fill:#5c4d9b;fill-opacity:1;fill-rule:nonzero;stroke:none"
         id="path3805"
         inkscape:connector-curvature="0" />
    </g>
    <g
       id="g3807"
       transform="matrix(0.35277777,0,0,-0.35277777,252.78895,179.64417)">
      <path
         d="m 0,0 c 0,0.355 -0.07,0.694 -0.206,1.008 -0.133,0.313 -0.318,0.586 -0.55,0.817 -0.23,0.236 -0.508,0.417 -0.821,0.554 -0.314,0.136 -0.649,0.202 -1.008,0.202 h -1.188 c -0.36,0 -0.695,-0.066 -1.008,-0.202 C -5.095,2.242 -5.372,2.061 -5.603,1.825 -5.834,1.594 -6.02,1.321 -6.152,1.008 -6.288,0.694 -6.358,0.355 -6.358,0 v -6.907 c 0,-0.36 0.07,-0.694 0.206,-1.008 0.132,-0.317 0.318,-0.59 0.549,-0.821 0.231,-0.232 0.508,-0.417 0.822,-0.549 0.313,-0.137 0.648,-0.207 1.008,-0.207 h 1.188 c 0.359,0 0.694,0.07 1.008,0.207 0.313,0.132 0.591,0.317 0.821,0.549 0.232,0.231 0.417,0.504 0.55,0.821 C -0.07,-7.601 0,-7.267 0,-6.907 Z M 1.441,-8.505 C 1.214,-9.038 0.904,-9.5 0.508,-9.896 c -0.397,-0.397 -0.863,-0.71 -1.396,-0.938 -0.532,-0.227 -1.098,-0.339 -1.697,-0.339 h -0.45 c -0.664,0 -1.283,0.137 -1.858,0.405 -0.57,0.273 -1.057,0.649 -1.465,1.131 v -7.196 H -8.142 V 3.973 h 0.595 l 0.974,-1.508 c 0.404,0.55 0.917,0.987 1.527,1.313 0.615,0.323 1.284,0.488 2.011,0.488 h 0.45 c 0.599,0 1.165,-0.117 1.697,-0.343 C -0.355,3.695 0.111,3.382 0.508,2.985 0.904,2.589 1.214,2.127 1.441,1.594 1.668,1.062 1.784,0.496 1.784,-0.103 v -6.706 c 0,-0.598 -0.116,-1.164 -0.343,-1.696"
         style="fill:#5c4d9b;fill-opacity:1;fill-rule:nonzero;stroke:none"
         id="path3809"
         inkscape:connector-curvature="0" />
    </g>
    <g
       id="g3811"
       transform="matrix(0.35277777,0,0,-0.35277777,257.54902,179.64417)">
      <path
         d="m 0,0 c 0,0.355 -0.07,0.694 -0.206,1.008 -0.133,0.313 -0.318,0.586 -0.55,0.817 -0.23,0.236 -0.508,0.417 -0.821,0.554 -0.314,0.136 -0.649,0.202 -1.008,0.202 h -1.188 c -0.36,0 -0.695,-0.066 -1.008,-0.202 C -5.095,2.242 -5.372,2.061 -5.603,1.825 -5.834,1.594 -6.02,1.321 -6.152,1.008 -6.288,0.694 -6.358,0.355 -6.358,0 v -6.907 c 0,-0.36 0.07,-0.694 0.206,-1.008 0.132,-0.317 0.318,-0.59 0.549,-0.821 0.231,-0.232 0.508,-0.417 0.822,-0.549 0.313,-0.137 0.648,-0.207 1.008,-0.207 h 1.188 c 0.359,0 0.694,0.07 1.008,0.207 0.313,0.132 0.591,0.317 0.821,0.549 0.232,0.231 0.417,0.504 0.55,0.821 C -0.07,-7.601 0,-7.267 0,-6.907 Z M 1.441,-8.505 C 1.214,-9.038 0.904,-9.5 0.508,-9.896 c -0.397,-0.397 -0.863,-0.71 -1.396,-0.938 -0.532,-0.227 -1.098,-0.339 -1.697,-0.339 h -0.449 c -0.665,0 -1.284,0.137 -1.859,0.405 -0.57,0.273 -1.056,0.649 -1.465,1.131 v -7.196 H -8.143 V 3.973 h 0.595 l 0.975,-1.508 c 0.404,0.55 0.917,0.987 1.527,1.313 0.615,0.323 1.284,0.488 2.012,0.488 h 0.449 c 0.599,0 1.165,-0.117 1.697,-0.343 C -0.355,3.695 0.111,3.382 0.508,2.985 0.904,2.589 1.214,2.127 1.441,1.594 1.668,1.062 1.784,0.496 1.784,-0.103 v -6.706 c 0,-0.598 -0.116,-1.164 -0.343,-1.696"
         style="fill:#5c4d9b;fill-opacity:1;fill-rule:nonzero;stroke:none"
         id="path3813"
         inkscape:connector-curvature="0" />
    </g>
    <path
       d="m 259.64625,176.14408 h 0.63076 v 7.33989 h -0.63076 z"
       style="fill:#5c4d9b;fill-opacity:1;fill-rule:nonzero;stroke:none;stroke-width:0.35277778"
       id="path3815"
       inkscape:connector-curvature="0" />
    <path
       d="m 261.95518,178.24276 h 0.63041 v 5.24086 h -0.63041 z m -0.0508,-2.09868 h 0.73236 v 0.83891 h -0.73236 z"
       style="fill:#5c4d9b;fill-opacity:1;fill-rule:nonzero;stroke:none;stroke-width:0.35277778"
       id="path3817"
       inkscape:connector-curvature="0" />
    <g
       id="g3819"
       transform="matrix(0.35277777,0,0,-0.35277777,267.43473,182.6445)">
      <path
         d="m 0,0 c -0.227,-0.533 -0.536,-0.995 -0.933,-1.392 -0.396,-0.396 -0.863,-0.71 -1.395,-0.937 -0.533,-0.227 -1.099,-0.339 -1.697,-0.339 h -1.189 c -0.599,0 -1.165,0.112 -1.697,0.339 -0.533,0.227 -0.999,0.541 -1.396,0.937 C -8.703,-0.995 -9.013,-0.533 -9.24,0 -9.467,0.532 -9.583,1.098 -9.583,1.696 v 6.706 c 0,0.599 0.116,1.164 0.343,1.697 0.227,0.533 0.537,0.995 0.933,1.391 0.397,0.397 0.863,0.71 1.396,0.938 0.532,0.226 1.098,0.343 1.697,0.343 h 1.189 c 0.598,0 1.164,-0.117 1.697,-0.343 C -1.796,12.2 -1.329,11.887 -0.933,11.49 -0.536,11.094 -0.227,10.632 0,10.099 0.228,9.566 0.343,9.001 0.343,8.402 V 7.808 L -1.44,7.519 v 0.986 c 0,0.355 -0.071,0.694 -0.207,1.008 -0.132,0.313 -0.318,0.586 -0.549,0.817 -0.232,0.235 -0.508,0.417 -0.822,0.554 -0.314,0.136 -0.648,0.202 -1.007,0.202 h -1.189 c -0.359,0 -0.694,-0.066 -1.008,-0.202 C -6.535,10.747 -6.812,10.565 -7.043,10.33 -7.274,10.099 -7.461,9.826 -7.593,9.513 -7.729,9.199 -7.799,8.86 -7.799,8.505 V 1.598 c 0,-0.36 0.07,-0.694 0.206,-1.008 0.132,-0.318 0.319,-0.59 0.55,-0.821 0.231,-0.232 0.508,-0.417 0.821,-0.549 0.314,-0.137 0.649,-0.207 1.008,-0.207 h 1.189 c 0.359,0 0.693,0.07 1.007,0.207 0.314,0.132 0.59,0.317 0.822,0.549 0.231,0.231 0.417,0.503 0.549,0.821 0.136,0.314 0.207,0.648 0.207,1.008 V 2.584 L 0.343,2.295 V 1.696 C 0.343,1.098 0.228,0.532 0,0"
         style="fill:#5c4d9b;fill-opacity:1;fill-rule:nonzero;stroke:none"
         id="path3821"
         inkscape:connector-curvature="0" />
    </g>
    <g
       id="g3823"
       transform="matrix(0.35277777,0,0,-0.35277777,271.68666,180.94468)">
      <path
         d="M 0,0 H -3.773 C -4.133,0 -4.468,-0.066 -4.781,-0.202 -5.095,-0.339 -5.372,-0.524 -5.603,-0.764 -5.834,-0.999 -6.02,-1.276 -6.152,-1.59 -6.288,-1.903 -6.358,-2.238 -6.358,-2.598 v -0.623 c 0,-0.359 0.07,-0.693 0.206,-1.008 0.132,-0.317 0.318,-0.589 0.549,-0.821 0.231,-0.231 0.508,-0.417 0.822,-0.549 0.313,-0.136 0.648,-0.207 1.008,-0.207 h 1.188 c 0.359,0 0.694,0.071 1.008,0.207 0.313,0.132 0.59,0.318 0.821,0.549 0.232,0.232 0.417,0.504 0.55,0.821 C -0.07,-3.914 0,-3.58 0,-3.221 Z m 1.189,-7.197 -0.987,1.478 c -0.408,-0.528 -0.916,-0.958 -1.523,-1.284 -0.612,-0.322 -1.276,-0.483 -2.003,-0.483 h -0.449 c -0.599,0 -1.165,0.112 -1.698,0.339 -0.533,0.227 -0.999,0.541 -1.395,0.937 -0.397,0.397 -0.706,0.858 -0.934,1.392 -0.226,0.532 -0.343,1.097 -0.343,1.696 v 0.149 c 0,0.599 0.117,1.164 0.343,1.697 0.228,0.533 0.537,0.995 0.934,1.391 0.396,0.397 0.862,0.71 1.395,0.938 0.533,0.226 1.099,0.339 1.698,0.339 H 0 V 3.687 C 0,4.042 -0.07,4.381 -0.206,4.694 -0.339,5.008 -0.524,5.28 -0.756,5.512 -0.987,5.747 -1.264,5.929 -1.577,6.065 -1.891,6.201 -2.226,6.268 -2.585,6.268 H -3.629 C -3.988,6.268 -4.323,6.201 -4.637,6.065 -4.95,5.929 -5.223,5.747 -5.458,5.512 -5.689,5.28 -5.871,5.008 -6.008,4.694 -6.144,4.381 -6.21,4.042 -6.21,3.687 V 3.15 l -1.788,0.289 v 0.145 c 0,0.599 0.116,1.164 0.343,1.696 0.227,0.533 0.541,0.995 0.937,1.392 0.397,0.396 0.859,0.71 1.392,0.937 0.532,0.227 1.097,0.343 1.697,0.343 h 1.044 c 0.599,0 1.165,-0.116 1.697,-0.343 C -0.355,7.382 0.111,7.068 0.508,6.672 0.904,6.275 1.214,5.813 1.441,5.28 1.668,4.748 1.783,4.183 1.783,3.584 V -7.197 Z"
         style="fill:#5c4d9b;fill-opacity:1;fill-rule:nonzero;stroke:none"
         id="path3825"
         inkscape:connector-curvature="0" />
    </g>
    <g
       id="g3827"
       transform="matrix(0.35277777,0,0,-0.35277777,275.48385,183.48373)">
      <path
         d="m 0,0 c -0.541,0 -1.053,0.104 -1.531,0.306 -0.48,0.202 -0.893,0.483 -1.247,0.842 -0.356,0.355 -0.632,0.772 -0.843,1.248 -0.206,0.474 -0.31,0.982 -0.31,1.523 v 9.24 h -2.671 v 1.697 h 2.671 v 3.572 l 1.785,0.289 V 14.856 H 1.627 V 13.159 H -2.146 V 3.832 c 0,-0.302 0.053,-0.578 0.165,-0.834 C -1.87,2.742 -1.718,2.515 -1.523,2.32 -1.329,2.127 -1.103,1.974 -0.842,1.866 -0.582,1.755 -0.301,1.697 0,1.697 H 1.627 V 0 Z"
         style="fill:#5c4d9b;fill-opacity:1;fill-rule:nonzero;stroke:none"
         id="path3829"
         inkscape:connector-curvature="0" />
    </g>
    <path
       d="m 277.42413,178.24276 h 0.63077 v 5.24086 h -0.63077 z m -0.0512,-2.09868 h 0.73272 v 0.83891 h -0.73272 z"
       style="fill:#5c4d9b;fill-opacity:1;fill-rule:nonzero;stroke:none;stroke-width:0.35277778"
       id="path3831"
       inkscape:connector-curvature="0" />
    <g
       id="g3833"
       transform="matrix(0.35277777,0,0,-0.35277777,282.3954,179.64417)">
      <path
         d="m 0,0 c 0,0.355 -0.07,0.694 -0.206,1.008 -0.133,0.313 -0.318,0.586 -0.55,0.817 -0.23,0.236 -0.508,0.417 -0.821,0.554 -0.314,0.136 -0.649,0.202 -1.008,0.202 h -1.188 c -0.36,0 -0.695,-0.066 -1.008,-0.202 C -5.095,2.242 -5.371,2.061 -5.603,1.825 -5.834,1.594 -6.02,1.321 -6.152,1.008 -6.288,0.694 -6.358,0.355 -6.358,0 v -6.907 c 0,-0.36 0.07,-0.694 0.206,-1.008 0.132,-0.317 0.318,-0.59 0.549,-0.821 0.232,-0.232 0.508,-0.417 0.822,-0.549 0.313,-0.137 0.648,-0.207 1.008,-0.207 h 1.188 c 0.359,0 0.694,0.07 1.008,0.207 0.313,0.132 0.591,0.317 0.821,0.549 0.232,0.231 0.417,0.504 0.55,0.821 C -0.07,-7.601 0,-7.267 0,-6.907 Z M 1.441,-8.505 C 1.214,-9.038 0.904,-9.5 0.508,-9.896 c -0.397,-0.397 -0.862,-0.71 -1.396,-0.938 -0.532,-0.227 -1.098,-0.339 -1.697,-0.339 h -1.188 c -0.599,0 -1.165,0.112 -1.698,0.339 -0.532,0.228 -0.999,0.541 -1.395,0.938 -0.397,0.396 -0.706,0.858 -0.934,1.391 -0.226,0.532 -0.342,1.098 -0.342,1.696 v 6.706 c 0,0.599 0.116,1.165 0.342,1.697 0.228,0.533 0.537,0.995 0.934,1.391 0.396,0.397 0.863,0.71 1.395,0.938 0.533,0.226 1.099,0.343 1.698,0.343 h 1.188 c 0.599,0 1.165,-0.117 1.697,-0.343 C -0.354,3.695 0.111,3.382 0.508,2.985 0.904,2.589 1.214,2.127 1.441,1.594 1.668,1.062 1.784,0.496 1.784,-0.103 v -6.706 c 0,-0.598 -0.116,-1.164 -0.343,-1.696"
         style="fill:#5c4d9b;fill-opacity:1;fill-rule:nonzero;stroke:none"
         id="path3835"
         inkscape:connector-curvature="0" />
    </g>
    <g
       id="g3837"
       transform="matrix(0.35277777,0,0,-0.35277777,287.15551,183.48373)">
      <path
         d="m 0,0 v 10.884 c 0,0.355 -0.07,0.694 -0.206,1.008 -0.133,0.313 -0.318,0.586 -0.55,0.817 -0.23,0.235 -0.508,0.417 -0.821,0.554 -0.314,0.135 -0.649,0.202 -1.008,0.202 h -1.188 c -0.36,0 -0.694,-0.067 -1.008,-0.202 -0.314,-0.137 -0.59,-0.319 -0.822,-0.554 -0.231,-0.231 -0.417,-0.504 -0.549,-0.817 -0.136,-0.314 -0.206,-0.653 -0.206,-1.008 V 0 h -1.784 v 14.856 h 0.594 l 0.975,-1.507 c 0.405,0.549 0.917,0.987 1.528,1.313 0.615,0.322 1.283,0.487 2.011,0.487 h 0.449 c 0.6,0 1.165,-0.116 1.697,-0.342 0.534,-0.228 0.999,-0.541 1.396,-0.938 0.396,-0.396 0.706,-0.858 0.933,-1.391 0.227,-0.533 0.343,-1.098 0.343,-1.697 L 1.784,0 Z"
         style="fill:#5c4d9b;fill-opacity:1;fill-rule:nonzero;stroke:none"
         id="path3839"
         inkscape:connector-curvature="0" />
    </g>
    <g
       id="g3841"
       transform="matrix(0.35277777,0,0,-0.35277777,292.64699,182.1522)">
      <path
         d="m 0,0 c 0,-0.604 -0.12,-1.152 -0.363,-1.647 -0.241,-0.5 -0.571,-0.93 -0.988,-1.285 -0.413,-0.359 -0.895,-0.635 -1.44,-0.834 -0.55,-0.198 -1.123,-0.297 -1.722,-0.297 h -1.189 c -0.599,0 -1.173,0.112 -1.718,0.338 -0.549,0.228 -1.028,0.541 -1.436,0.938 -0.414,0.396 -0.74,0.858 -0.988,1.391 -0.248,0.533 -0.371,1.098 -0.371,1.697 v 0.598 l 1.783,0.289 V 0.202 c 0,-0.359 0.078,-0.693 0.228,-1.008 0.148,-0.317 0.35,-0.59 0.602,-0.821 0.252,-0.231 0.541,-0.417 0.872,-0.549 0.326,-0.137 0.668,-0.207 1.028,-0.207 h 1.189 c 0.359,0 0.701,0.054 1.033,0.161 0.326,0.108 0.619,0.26 0.875,0.458 0.255,0.199 0.461,0.439 0.611,0.719 0.148,0.281 0.223,0.599 0.223,0.958 0,0.528 -0.116,0.966 -0.347,1.305 -0.232,0.339 -0.541,0.619 -0.921,0.846 -0.384,0.227 -0.817,0.417 -1.305,0.566 -0.491,0.152 -0.991,0.302 -1.503,0.45 -0.511,0.152 -1.011,0.322 -1.503,0.516 -0.487,0.194 -0.921,0.446 -1.304,0.763 -0.384,0.315 -0.69,0.706 -0.921,1.182 -0.232,0.475 -0.347,1.065 -0.347,1.771 0,0.599 0.115,1.148 0.347,1.647 0.231,0.496 0.545,0.926 0.941,1.284 0.397,0.356 0.859,0.636 1.388,0.834 0.528,0.198 1.09,0.298 1.688,0.298 h 1.045 c 0.599,0 1.168,-0.116 1.697,-0.343 0.533,-0.227 0.999,-0.541 1.395,-0.937 0.397,-0.397 0.706,-0.859 0.934,-1.392 0.226,-0.532 0.342,-1.098 0.342,-1.696 V 6.948 L -1.929,6.659 v 0.45 c 0,0.356 -0.07,0.695 -0.202,1.008 C -2.267,8.431 -2.453,8.703 -2.684,8.935 -2.915,9.17 -3.188,9.352 -3.506,9.488 -3.819,9.624 -4.154,9.69 -4.513,9.69 H -5.558 C -5.913,9.69 -6.251,9.637 -6.565,9.529 -6.879,9.426 -7.151,9.273 -7.387,9.075 -7.618,8.877 -7.8,8.638 -7.936,8.356 -8.072,8.076 -8.139,7.754 -8.139,7.398 c 0,-0.511 0.117,-0.932 0.347,-1.254 0.231,-0.327 0.541,-0.599 0.921,-0.822 0.385,-0.223 0.817,-0.409 1.305,-0.557 0.492,-0.149 0.987,-0.306 1.495,-0.463 0.508,-0.161 1.008,-0.343 1.494,-0.545 0.492,-0.202 0.926,-0.467 1.309,-0.784 0.38,-0.319 0.69,-0.719 0.921,-1.198 C -0.116,1.296 0,0.706 0,0"
         style="fill:#5c4d9b;fill-opacity:1;fill-rule:nonzero;stroke:none"
         id="path3843"
         inkscape:connector-curvature="0" />
    </g>
    <g
       id="g3845"
       transform="matrix(0.35277777,0,0,-0.35277777,296.36837,183.48373)">
      <path
         d="M 0,0 V 20.806 H 1.87 V 1.784 H 9.835 V 0 Z"
         style="fill:#5c4d9b;fill-opacity:1;fill-rule:nonzero;stroke:none"
         id="path3847"
         inkscape:connector-curvature="0" />
    </g>
    <g
       id="g3849"
       transform="matrix(0.35277777,0,0,-0.35277777,303.54934,180.94468)">
      <path
         d="m 0,0 h -3.773 c -0.36,0 -0.694,-0.066 -1.008,-0.202 -0.314,-0.137 -0.59,-0.322 -0.822,-0.562 -0.231,-0.235 -0.417,-0.512 -0.549,-0.826 -0.136,-0.313 -0.206,-0.648 -0.206,-1.008 v -0.623 c 0,-0.359 0.07,-0.693 0.206,-1.008 0.132,-0.317 0.318,-0.589 0.549,-0.821 0.232,-0.231 0.508,-0.417 0.822,-0.549 0.314,-0.136 0.648,-0.207 1.008,-0.207 h 1.188 c 0.359,0 0.694,0.071 1.008,0.207 0.313,0.132 0.591,0.318 0.821,0.549 0.232,0.232 0.418,0.504 0.55,0.821 C -0.07,-3.914 0,-3.58 0,-3.221 Z m 1.189,-7.197 -0.987,1.478 c -0.408,-0.528 -0.916,-0.958 -1.523,-1.284 -0.612,-0.322 -1.276,-0.483 -2.002,-0.483 h -0.45 c -0.599,0 -1.164,0.112 -1.698,0.339 -0.532,0.227 -0.999,0.541 -1.395,0.937 -0.397,0.397 -0.706,0.858 -0.933,1.392 -0.227,0.532 -0.343,1.097 -0.343,1.696 v 0.149 c 0,0.599 0.116,1.164 0.343,1.697 0.227,0.533 0.536,0.995 0.933,1.391 0.396,0.397 0.863,0.71 1.395,0.938 0.534,0.226 1.099,0.339 1.698,0.339 H 0 v 2.295 c 0,0.355 -0.07,0.694 -0.206,1.007 -0.132,0.314 -0.318,0.586 -0.55,0.818 -0.23,0.235 -0.508,0.417 -0.821,0.553 -0.314,0.136 -0.649,0.203 -1.008,0.203 H -3.629 C -3.988,6.268 -4.323,6.201 -4.637,6.065 -4.95,5.929 -5.223,5.747 -5.458,5.512 -5.689,5.28 -5.871,5.008 -6.008,4.694 -6.144,4.381 -6.21,4.042 -6.21,3.687 V 3.15 l -1.787,0.289 v 0.145 c 0,0.599 0.115,1.164 0.343,1.696 0.226,0.533 0.54,0.995 0.936,1.392 0.397,0.396 0.86,0.71 1.392,0.937 0.533,0.227 1.098,0.343 1.697,0.343 h 1.044 c 0.6,0 1.165,-0.116 1.697,-0.343 C -0.354,7.382 0.111,7.068 0.508,6.672 0.904,6.275 1.214,5.813 1.441,5.28 1.668,4.748 1.784,4.183 1.784,3.584 V -7.197 Z"
         style="fill:#5c4d9b;fill-opacity:1;fill-rule:nonzero;stroke:none"
         id="path3851"
         inkscape:connector-curvature="0" />
    </g>
    <g
       id="g3853"
       transform="matrix(0.35277777,0,0,-0.35277777,308.3094,179.64417)">
      <path
         d="m 0,0 c 0,0.355 -0.07,0.694 -0.206,1.008 -0.132,0.313 -0.318,0.586 -0.549,0.817 -0.231,0.236 -0.509,0.417 -0.822,0.554 -0.314,0.136 -0.649,0.202 -1.007,0.202 h -1.189 c -0.36,0 -0.694,-0.066 -1.008,-0.202 C -5.095,2.242 -5.371,2.061 -5.603,1.825 -5.834,1.594 -6.02,1.321 -6.151,1.008 -6.288,0.694 -6.358,0.355 -6.358,0 v -6.907 c 0,-0.36 0.07,-0.694 0.207,-1.008 0.131,-0.317 0.317,-0.59 0.548,-0.821 0.232,-0.232 0.508,-0.417 0.822,-0.549 0.314,-0.137 0.648,-0.207 1.008,-0.207 h 1.189 c 0.358,0 0.693,0.07 1.007,0.207 0.313,0.132 0.591,0.317 0.822,0.549 0.231,0.231 0.417,0.504 0.549,0.821 C -0.07,-7.601 0,-7.267 0,-6.907 Z M 1.441,-8.505 C 1.214,-9.038 0.904,-9.5 0.508,-9.896 c -0.397,-0.397 -0.862,-0.71 -1.396,-0.938 -0.532,-0.227 -1.097,-0.339 -1.696,-0.339 h -1.189 c -0.599,0 -1.164,0.112 -1.698,0.339 -0.532,0.228 -0.999,0.541 -1.395,0.938 -0.397,0.396 -0.706,0.858 -0.933,1.391 -0.227,0.532 -0.343,1.098 -0.343,1.696 V 9.922 h 1.784 V 2.726 c 0.409,0.482 0.896,0.862 1.465,1.13 0.575,0.273 1.194,0.41 1.859,0.41 h 0.45 c 0.599,0 1.164,-0.117 1.696,-0.343 C -0.354,3.695 0.111,3.382 0.508,2.985 0.904,2.589 1.214,2.127 1.441,1.594 1.668,1.062 1.784,0.496 1.784,-0.103 v -6.706 c 0,-0.598 -0.116,-1.164 -0.343,-1.696"
         style="fill:#5c4d9b;fill-opacity:1;fill-rule:nonzero;stroke:none"
         id="path3855"
         inkscape:connector-curvature="0" />
    </g>
    <g
       id="g3857"
       transform="matrix(0.35277777,0,0,-0.35277777,313.0695,179.64417)">
      <path
         d="m 0,0 c 0,0.355 -0.07,0.694 -0.206,1.008 -0.132,0.313 -0.318,0.586 -0.549,0.817 -0.231,0.236 -0.508,0.417 -0.822,0.554 -0.314,0.136 -0.649,0.202 -1.007,0.202 h -1.189 c -0.36,0 -0.694,-0.066 -1.008,-0.202 C -5.095,2.242 -5.371,2.061 -5.603,1.825 -5.834,1.594 -6.02,1.321 -6.151,1.008 -6.288,0.694 -6.358,0.355 -6.358,0 v -6.907 c 0,-0.36 0.07,-0.694 0.207,-1.008 0.131,-0.317 0.317,-0.59 0.548,-0.821 0.232,-0.232 0.508,-0.417 0.822,-0.549 0.314,-0.137 0.648,-0.207 1.008,-0.207 h 1.189 c 0.358,0 0.693,0.07 1.007,0.207 0.314,0.132 0.591,0.317 0.822,0.549 0.231,0.231 0.417,0.504 0.549,0.821 C -0.07,-7.601 0,-7.267 0,-6.907 Z M 1.441,-8.505 C 1.214,-9.038 0.904,-9.5 0.508,-9.896 c -0.397,-0.397 -0.862,-0.71 -1.396,-0.938 -0.532,-0.227 -1.097,-0.339 -1.696,-0.339 h -1.189 c -0.599,0 -1.164,0.112 -1.698,0.339 -0.532,0.228 -0.999,0.541 -1.395,0.938 -0.397,0.396 -0.706,0.858 -0.933,1.391 -0.227,0.532 -0.343,1.098 -0.343,1.696 v 6.706 c 0,0.599 0.116,1.165 0.343,1.697 0.227,0.533 0.536,0.995 0.933,1.391 0.396,0.397 0.863,0.71 1.395,0.938 0.534,0.226 1.099,0.343 1.698,0.343 h 1.189 c 0.599,0 1.164,-0.117 1.696,-0.343 C -0.354,3.695 0.111,3.382 0.508,2.985 0.904,2.589 1.214,2.127 1.441,1.594 1.668,1.062 1.784,0.496 1.784,-0.103 v -6.706 c 0,-0.598 -0.116,-1.164 -0.343,-1.696"
         style="fill:#5c4d9b;fill-opacity:1;fill-rule:nonzero;stroke:none"
         id="path3859"
         inkscape:connector-curvature="0" />
    </g>
    <g
       id="g3861"
       transform="matrix(0.35277777,0,0,-0.35277777,316.4984,178.84145)">
      <path
         d="m 0,0 c -0.359,0 -0.693,-0.066 -1.008,-0.202 -0.313,-0.137 -0.59,-0.319 -0.821,-0.55 -0.232,-0.235 -0.417,-0.508 -0.549,-0.821 -0.137,-0.314 -0.207,-0.653 -0.207,-1.008 V -13.159 H -4.368 V 1.697 h 0.595 L -2.8,0.189 c 0.405,0.55 0.917,0.988 1.529,1.314 0.615,0.322 1.284,0.487 2.01,0.487 H 1.784 V 0 Z"
         style="fill:#5c4d9b;fill-opacity:1;fill-rule:nonzero;stroke:none"
         id="path3863"
         inkscape:connector-curvature="0" />
    </g>
    <g
       id="g3865"
       transform="matrix(0.35277777,0,0,-0.35277777,320.8406,180.94468)">
      <path
         d="m 0,0 h -3.774 c -0.36,0 -0.694,-0.066 -1.007,-0.202 -0.315,-0.137 -0.591,-0.322 -0.823,-0.562 -0.23,-0.235 -0.417,-0.512 -0.548,-0.826 -0.137,-0.313 -0.206,-0.648 -0.206,-1.008 v -0.623 c 0,-0.359 0.069,-0.693 0.206,-1.008 0.131,-0.317 0.318,-0.589 0.548,-0.821 0.232,-0.231 0.508,-0.417 0.823,-0.549 0.313,-0.136 0.647,-0.207 1.007,-0.207 h 1.189 c 0.359,0 0.693,0.071 1.008,0.207 0.313,0.132 0.59,0.318 0.821,0.549 0.232,0.232 0.417,0.504 0.549,0.821 C -0.07,-3.914 0,-3.58 0,-3.221 Z m 1.188,-7.197 -0.986,1.478 c -0.409,-0.528 -0.917,-0.958 -1.523,-1.284 -0.612,-0.322 -1.277,-0.483 -2.003,-0.483 h -0.45 c -0.599,0 -1.164,0.112 -1.697,0.339 -0.533,0.227 -1,0.541 -1.395,0.937 -0.397,0.397 -0.706,0.858 -0.934,1.392 -0.227,0.532 -0.343,1.097 -0.343,1.696 v 0.149 c 0,0.599 0.116,1.164 0.343,1.697 0.228,0.533 0.537,0.995 0.934,1.391 0.395,0.397 0.862,0.71 1.395,0.938 0.533,0.226 1.098,0.339 1.697,0.339 L 0,1.392 V 3.687 C 0,4.042 -0.07,4.381 -0.207,4.694 -0.339,5.008 -0.524,5.28 -0.756,5.512 -0.987,5.747 -1.264,5.929 -1.577,6.065 -1.892,6.201 -2.226,6.268 -2.585,6.268 H -3.63 C -3.989,6.268 -4.323,6.201 -4.637,6.065 -4.951,5.929 -5.224,5.747 -5.459,5.512 -5.69,5.28 -5.872,5.008 -6.008,4.694 -6.145,4.381 -6.21,4.042 -6.21,3.687 V 3.15 l -1.788,0.289 v 0.145 c 0,0.599 0.115,1.164 0.343,1.696 0.226,0.533 0.541,0.995 0.937,1.392 0.397,0.396 0.859,0.71 1.392,0.937 0.532,0.227 1.097,0.343 1.696,0.343 h 1.045 c 0.599,0 1.164,-0.116 1.697,-0.343 C -0.355,7.382 0.111,7.068 0.508,6.672 0.904,6.275 1.214,5.813 1.44,5.28 1.668,4.748 1.783,4.183 1.783,3.584 V -7.197 Z"
         style="fill:#5c4d9b;fill-opacity:1;fill-rule:nonzero;stroke:none"
         id="path3867"
         inkscape:connector-curvature="0" />
    </g>
    <g
       id="g3869"
       transform="matrix(0.35277777,0,0,-0.35277777,324.63779,183.48373)">
      <path
         d="M 0,0 C -0.541,0 -1.053,0.104 -1.532,0.306 -2.011,0.508 -2.424,0.789 -2.778,1.148 -3.134,1.503 -3.41,1.92 -3.621,2.396 -3.827,2.87 -3.931,3.378 -3.931,3.919 v 9.24 h -2.672 v 1.697 h 2.672 v 3.572 l 1.784,0.289 V 14.856 H 1.627 V 13.159 H -2.147 V 3.832 c 0,-0.302 0.053,-0.578 0.166,-0.834 C -1.87,2.742 -1.718,2.515 -1.523,2.32 -1.329,2.127 -1.103,1.974 -0.842,1.866 -0.582,1.755 -0.302,1.697 0,1.697 H 1.627 V 0 Z"
         style="fill:#5c4d9b;fill-opacity:1;fill-rule:nonzero;stroke:none"
         id="path3871"
         inkscape:connector-curvature="0" />
    </g>
    <g
       id="g3873"
       transform="matrix(0.35277777,0,0,-0.35277777,329.23904,179.64417)">
      <path
         d="m 0,0 c 0,0.355 -0.07,0.694 -0.206,1.008 -0.132,0.313 -0.318,0.586 -0.549,0.817 -0.231,0.236 -0.509,0.417 -0.822,0.554 -0.314,0.136 -0.649,0.202 -1.007,0.202 h -1.189 c -0.36,0 -0.694,-0.066 -1.008,-0.202 C -5.095,2.242 -5.371,2.061 -5.603,1.825 -5.834,1.594 -6.02,1.321 -6.151,1.008 -6.288,0.694 -6.358,0.355 -6.358,0 v -6.907 c 0,-0.36 0.07,-0.694 0.207,-1.008 0.131,-0.317 0.317,-0.59 0.548,-0.821 0.232,-0.232 0.508,-0.417 0.822,-0.549 0.314,-0.137 0.648,-0.207 1.008,-0.207 h 1.189 c 0.358,0 0.693,0.07 1.007,0.207 0.313,0.132 0.591,0.317 0.822,0.549 0.231,0.231 0.417,0.504 0.549,0.821 C -0.07,-7.601 0,-7.267 0,-6.907 Z M 1.441,-8.505 C 1.214,-9.038 0.904,-9.5 0.508,-9.896 c -0.397,-0.397 -0.862,-0.71 -1.396,-0.938 -0.532,-0.227 -1.097,-0.339 -1.696,-0.339 h -1.189 c -0.599,0 -1.164,0.112 -1.698,0.339 -0.532,0.228 -0.999,0.541 -1.395,0.938 -0.397,0.396 -0.706,0.858 -0.933,1.391 -0.227,0.532 -0.343,1.098 -0.343,1.696 v 6.706 c 0,0.599 0.116,1.165 0.343,1.697 0.227,0.533 0.536,0.995 0.933,1.391 0.396,0.397 0.863,0.71 1.395,0.938 0.534,0.226 1.099,0.343 1.698,0.343 h 1.189 c 0.599,0 1.164,-0.117 1.696,-0.343 C -0.354,3.695 0.111,3.382 0.508,2.985 0.904,2.589 1.214,2.127 1.441,1.594 1.668,1.062 1.784,0.496 1.784,-0.103 v -6.706 c 0,-0.598 -0.116,-1.164 -0.343,-1.696"
         style="fill:#5c4d9b;fill-opacity:1;fill-rule:nonzero;stroke:none"
         id="path3875"
         inkscape:connector-curvature="0" />
    </g>
    <g
       id="g3877"
       transform="matrix(0.35277777,0,0,-0.35277777,332.66797,178.84145)">
      <path
         d="m 0,0 c -0.359,0 -0.693,-0.066 -1.008,-0.202 -0.313,-0.137 -0.59,-0.319 -0.821,-0.55 -0.232,-0.235 -0.417,-0.508 -0.549,-0.821 -0.137,-0.314 -0.207,-0.653 -0.207,-1.008 V -13.159 H -4.368 V 1.697 h 0.595 L -2.8,0.189 c 0.405,0.55 0.917,0.988 1.529,1.314 0.615,0.322 1.284,0.487 2.01,0.487 H 1.783 V 0 Z"
         style="fill:#5c4d9b;fill-opacity:1;fill-rule:nonzero;stroke:none"
         id="path3879"
         inkscape:connector-curvature="0" />
    </g>
    <g
       id="g3881"
       transform="matrix(0.35277777,0,0,-0.35277777,334.98684,185.58247)">
      <path
         d="m 0,0 h -1.73 l 2.642,7.226 -4.818,13.58 h 1.788 L 1.755,9.546 1.812,8.778 1.87,9.546 5.73,20.806 h 1.785 z"
         style="fill:#5c4d9b;fill-opacity:1;fill-rule:nonzero;stroke:none"
         id="path3883"
         inkscape:connector-curvature="0" />
    </g>
    <g
       id="g3885"
       transform="matrix(0.35277777,0,0,-0.35277777,233.4852,153.86211)">
      <path
         d="M 0,0 H -40.166 V -40.166 H 40.166 V 40.166 H 80.33 V 80.328 H 0 Z"
         style="fill:#231e45;fill-opacity:1;fill-rule:nonzero;stroke:none"
         id="path3887"
         inkscape:connector-curvature="0" />
    </g>
    <g
       id="g3889"
       transform="matrix(0.35277777,0,0,-0.35277777,275.99337,125.52414)">
      <path
         d="m 0,0 v -120.494 h 40.166 v 40.166 h 40.166 v -40.166 h 40.164 V 0 Z"
         style="fill:#231e45;fill-opacity:1;fill-rule:nonzero;stroke:none"
         id="path3891"
         inkscape:connector-curvature="0" />
    </g>
    <g
       id="g3893"
       transform="matrix(0.35277777,0,0,-0.35277777,205.14603,139.69244)">
      <path
         d="M 0,0 V 40.162 H -120.496 V -80.332 H 0 v 40.166 h -40.164 v 10.35 h 19.831 V -9.88 H -40.164 V 0 Z"
         style="fill:#231e45;fill-opacity:1;fill-rule:nonzero;stroke:none"
         id="path3895"
         inkscape:connector-curvature="0" />
    </g>
    <path
       d="m 115.67557,126.82404 h -1.96961 v 35.44775 h 1.96961 z"
       style="fill:#d6cde6;fill-opacity:1;fill-rule:nonzero;stroke:none;stroke-width:0.30324954"
       id="path3897"
       inkscape:connector-curvature="0" />
    <path
       d="m 134.38424,150.13301 h -1.9696 v 7.31863 h 1.9696 z"
       style="fill:#d6cde6;fill-opacity:1;fill-rule:nonzero;stroke:none;stroke-width:0.30324954"
       id="path3899"
       inkscape:connector-curvature="0" />
    <path
       d="M 113.70596,162.27179 H 96.966889 v 1.96839 h 16.739071 z"
       style="fill:#d6cde6;fill-opacity:1;fill-rule:nonzero;stroke:none;stroke-width:0.30324954"
       id="path3901"
       inkscape:connector-curvature="0" />
    <path
       d="m 113.70596,180.98046 h 1.96961 v -16.74028 h -1.96961 z"
       style="fill:#d6cde6;fill-opacity:1;fill-rule:nonzero;stroke:none;stroke-width:0.30324954"
       id="path3903"
       inkscape:connector-curvature="0" />
    <path
       d="m 151.12271,162.27179 h 1.9696 V 145.5315 h -1.9696 z"
       style="fill:#d6cde6;fill-opacity:1;fill-rule:nonzero;stroke:none;stroke-width:0.30324954"
       id="path3905"
       inkscape:connector-curvature="0" />
    <path
       d="m 132.41464,162.27179 h -16.73907 v 1.96839 h 16.73907 z"
       style="fill:#d6cde6;fill-opacity:1;fill-rule:nonzero;stroke:none;stroke-width:0.30324954"
       id="path3907"
       inkscape:connector-curvature="0" />
    <path
       d="m 115.67557,162.27179 h -1.96961 v 1.96839 h 1.96961 z"
       style="fill:#5c4d9b;fill-opacity:1;fill-rule:nonzero;stroke:none;stroke-width:0.30324954"
       id="path3909"
       inkscape:connector-curvature="0" />
    <path
       d="m 132.41464,180.98046 h 1.9696 v -16.74028 h -1.9696 z"
       style="fill:#5c4d9b;fill-opacity:1;fill-rule:nonzero;stroke:none;stroke-width:0.30324954"
       id="path3911"
       inkscape:connector-curvature="0" />
    <g
       id="g3913"
       transform="matrix(0.30324954,0,0,-0.30324954,141.65196,157.45148)">
      <path
         d="m 0,0 h -23.966 v -6.49 h 30.46 v 37.114 h -30.46 v -6.49 H 0 Z"
         style="fill:#d6cde6;fill-opacity:1;fill-rule:nonzero;stroke:none"
         id="path3915"
         inkscape:connector-curvature="0" />
    </g>
    <path
       d="m 134.38424,164.24018 h 16.73816 v -1.96839 h -16.73816 z"
       style="fill:#d6cde6;fill-opacity:1;fill-rule:nonzero;stroke:none;stroke-width:0.30324954"
       id="path3917"
       inkscape:connector-curvature="0" />
    <g
       id="g3919"
       transform="matrix(0.30324954,0,0,-0.30324954,134.38433,159.41963)">
      <path
         d="M 0,0 V 6.49 H -6.495 V -9.406 H 0 Z"
         style="fill:#5c4d9b;fill-opacity:1;fill-rule:nonzero;stroke:none"
         id="path3921"
         inkscape:connector-curvature="0" />
    </g>
    <path
       d="m 115.67557,182.94886 h 16.73907 v -1.9684 h -16.73907 z"
       style="fill:#5c4d9b;fill-opacity:1;fill-rule:nonzero;stroke:none;stroke-width:0.30324954"
       id="path3923"
       inkscape:connector-curvature="0" />
    <g
       id="g3925"
       transform="matrix(0.30324954,0,0,-0.30324954,132.4147,150.13292)">
      <path
         d="m 0,0 h 6.495 v 6.49 8.683 h 55.196 v 6.491 H 0 Z"
         style="fill:#5c4d9b;fill-opacity:1;fill-rule:nonzero;stroke:none"
         id="path3927"
         inkscape:connector-curvature="0" />
    </g>
    <g
       id="g3929"
       transform="matrix(0.30324954,0,0,-0.30324954,151.12259,164.24024)">
      <path
         d="m 0,0 v -55.203 h -55.196 v -6.491 H 6.495 V 6.491 H 0 Z"
         style="fill:#5c4d9b;fill-opacity:1;fill-rule:nonzero;stroke:none"
         id="path3931"
         inkscape:connector-curvature="0" />
    </g>
    <g
       id="g3933"
       transform="matrix(0.30324954,0,0,-0.30324954,96.966919,126.82416)">
      <path
         d="M 0,0 H 55.199 V 6.491 H -6.495 V -116.893 H 0 Z"
         style="fill:#5c4d9b;fill-opacity:1;fill-rule:nonzero;stroke:none"
         id="path3935"
         inkscape:connector-curvature="0" />
    </g>
    <g
       id="g3937"
       transform="matrix(0.30324954,0,0,-0.30324954,113.70608,124.85586)">
      <path
         d="m 0,0 v -6.491 h 6.495 116.89 v -55.199 -6.491 h 6.495 V 0 Z"
         style="fill:#231e45;fill-opacity:1;fill-rule:nonzero;stroke:none"
         id="path3939"
         inkscape:connector-curvature="0" />
    </g>
    <path
       d="m 134.38424,162.27179 h -1.9696 v 1.96839 h 1.9696 z"
       style="fill:#231e45;fill-opacity:1;fill-rule:nonzero;stroke:none;stroke-width:0.30324954"
       id="path3941"
       inkscape:connector-curvature="0" />
    <path
       d="m 132.41464,182.94886 h 1.9696 v -1.9684 h -1.9696 z"
       style="fill:#231e45;fill-opacity:1;fill-rule:nonzero;stroke:none;stroke-width:0.30324954"
       id="path3943"
       inkscape:connector-curvature="0" />
    <g
       id="g3945"
       transform="matrix(0.30324954,0,0,-0.30324954,113.70608,180.98056)">
      <path
         d="m 0,0 h -55.199 v 55.203 6.491 h -6.495 V -6.491 H 6.495 V 0 Z"
         style="fill:#231e45;fill-opacity:1;fill-rule:nonzero;stroke:none"
         id="path3947"
         inkscape:connector-curvature="0" />
    </g>
  </g>
</svg>
